<?xml version="1.0" encoding="utf-8"?>
<svg version="1.1" id="layer_1" xmlns="http://www.w3.org/2000/svg" xmlns:xlink="http://www.w3.org/1999/xlink" x="0px" y="0px"
	 viewBox="0 0 500 500" style="enable-background:new 0 0 500 500;" xml:space="preserve">
<style type="text/css">
	.st0{fill:#93D5F6;}
	.st1{fill:#FFFFFF;}
	.st2{fill:#CCCCCC;}
	.st3{fill:none;stroke:#000000;stroke-width:2;stroke-miterlimit:10;}
	.st4{fill:#009640;}
</style>
<g>
	<rect x="0" y="0" class="st0" width="500" height="500"/>
</g>
<g>
	<ellipse fill="#513614" cx="250" cy="449" rx="81.1" ry="25.4"/>
</g>
<g>
	<path class="st1" d="M109.5,169.5c0,19.3,3.9,37.6,10.9,54.4l-0.1-0.3c0,0,29,73.2,129.7,225.4V29C172.4,29,109.5,91.9,109.5,169.5
		z"/>
</g>
<g>
	<path class="st2" d="M379.6,223.9c7-16.7,10.9-35.1,10.9-54.4C390.5,91.9,327.6,29,250,29v420c100.6-152.2,129.7-225.4,129.7-225.4
		L379.6,223.9z"/>
</g>
<g>
	<rect fill="#513614" x="236.5" y="259.9" width="27" height="87.9"/>
</g>
<g>
	<path class="st3" d="M250,246.6"/>
</g>
<g>
	<path class="st3" d="M250,166.4"/>
</g>
<g>
	<circle class="st4" cx="250" cy="169.5" r="98.3"/>
</g>
<g>
	<path class="st1" d="M304.6,145.7c-8.8-18.4-26-31.8-45.9-35.9l3.4-16.7c25.1,5.1,46.7,22,57.8,45.2L304.6,145.7z"/>
</g>
</svg>
